<?xml version="1.0" standalone="no"?>
<!DOCTYPE svg PUBLIC "-//W3C//DTD SVG 20010904//EN"
 "http://www.w3.org/TR/2001/REC-SVG-20010904/DTD/svg10.dtd">
<svg version="1.0" xmlns="http://www.w3.org/2000/svg"
 width="320.000000pt" height="320.000000pt" viewBox="0 0 320.000000 320.000000"
 preserveAspectRatio="xMidYMid meet">
<metadata>
Created by potrace 1.11, written by Peter Selinger 2001-2013
</metadata>
<g transform="translate(0.000000,320.000000) scale(0.100000,-0.100000)"
fill="#000000" stroke="none">
<path d="M1011 2683 c-11 -22 11 -65 32 -61 10 2 131 -12 147 -17 120 -36 174
-61 232 -108 34 -27 36 -32 23 -47 -40 -45 -59 -154 -36 -212 8 -21 8 -28 -2
-29 -6 -1 -79 -2 -162 -4 -82 -2 -169 -5 -192 -8 -55 -7 -123 -28 -123 -38 0
-4 -9 -11 -20 -14 -33 -11 -99 -102 -117 -163 -23 -77 -20 -142 7 -194 l22
-43 -23 -15 c-63 -41 -126 -119 -133 -162 -1 -7 -4 -17 -7 -23 -3 -5 -7 -28
-8 -50 -2 -22 -4 -41 -5 -43 -2 -1 -18 -4 -36 -6 -29 -3 -60 -27 -60 -46 0 -3
14 -44 30 -90 17 -47 32 -92 35 -100 2 -8 22 -69 45 -135 23 -66 62 -178 87
-250 122 -356 130 -372 208 -391 24 -6 315 -10 735 -9 728 1 713 0 763 43 26
23 38 52 128 312 44 129 110 318 145 420 35 102 64 193 64 202 0 24 -45 51
-74 46 -23 -5 -24 -4 -23 76 1 101 -18 145 -82 191 -45 33 -150 73 -203 77
-32 3 -32 1 -15 36 30 61 15 135 -41 211 -36 48 -54 63 -142 122 -87 59 -153
91 -264 128 -75 26 -79 29 -82 59 -15 132 -182 233 -304 185 -33 -13 -46 -11
-70 10 -96 86 -244 143 -396 154 -64 5 -73 3 -83 -14z"/>
</g>
</svg>
